<svg enable-background="new 0 0 1980 1980" viewBox="0 0 1980 1980" xmlns="http://www.w3.org/2000/svg" xmlns:xlink="http://www.w3.org/1999/xlink"><linearGradient id="a" gradientUnits="userSpaceOnUse" x1="620.0119" x2="1361.25" y1="327.9933" y2="327.9933"><stop offset="0" stop-color="#fff"/><stop offset="1" stop-color="#a7a9ac"/></linearGradient><circle cx="990" cy="990" fill="#308a40" r="990"/><circle cx="990" cy="990" fill="#ffcb04" r="891"/><path d="m1361.25 506.67c0 4.3-.09 8.55-.26 12.8h-740.98v-50.3c17.74-176.98 159.67-317.35 337.33-332.65h64.69c190.08 16.37 339.22 175.86 339.22 370.15z" fill="url(#a)"/><path d="m1360.99 519.47c-6.7 199.27-170.4 358.76-371.31 358.76-192.53 0-350.9-146.48-369.67-334.06v-24.7z" fill="#ed232a"/><g fill="#003876"><path d="m964.06 325.1h56.49c.52 0 .94-.41.94-.94v-2.16c0-.52-.41-.94-.94-.94h-56.49c-.52 0-.94.41-.94.94v2.17c0 .52.41.93.94.93z"/><path d="m1003.88 284.84c-.94 0-1.69.75-1.69 1.69v29.37c0 .94.75 1.69 1.69 1.69h5.51c.94 0 1.69-.75 1.69-1.69v-29.37c0-.94-.75-1.69-1.69-1.69z"/><path d="m989.61 284.84c-.94 0-1.69.75-1.69 1.69v29.37c0 .94.75 1.69 1.69 1.69h5.51c.94 0 1.69-.75 1.69-1.69v-29.37c0-.94-.75-1.69-1.69-1.69z"/><path d="m975.22 284.84c-.94 0-1.69.75-1.69 1.69v29.37c0 .94.75 1.69 1.69 1.69h5.51c.94 0 1.69-.75 1.69-1.69v-29.37c0-.94-.75-1.69-1.69-1.69z"/><path d="m1000.36 337.39c-.19-.19-.6-.52-.6-.52v131.93l48.4.15s0-1.35 0-2.06c-.04-56.23-19.41-105.04-47.8-129.5z"/><path d="m1100.07 468.39c-.19-2.32-.45-4.64-.75-6.93-1.31-13.3-4.5-31.24-11.8-49.18-2.06-5.02-4.35-10.08-7.08-14.98-.67-1.24-1.42-2.4-2.14-3.63-14.83-27.53-36.07-48.62-60.8-59.37-.04-.04-.07-.04-.07-.04l.19.22s7.08 6.82 13.37 16.67c15.51 24.24 26.11 52.59 29.74 87.62 1.5 14.57 1.42 26.03 1.31 23.15.07 2.06.15 5.39.19 6.56l-.07.41h3.18l34.61-.11v-.04h.19c-.03.02-.07-.24-.07-.35z"/><path d="m964.06 282.44h56.49c.52 0 .94-.41.94-.94v-2.17c0-.52-.41-.94-.94-.94h-56.49c-.52 0-.94.41-.94.94v2.17c0 .53.41.94.94.94z"/><path d="m1046.13 334.66c1.84 1.35 3.97 3 6.33 4.91 5.39 4.46 9.93 9.07 14.05 13.37 13.41 14.16 20.86 27.61 28.17 41.95 4.05 7.98 6.67 15.36 8.99 21.95.45 1.24 4.12 11.43 6.44 23.07 2.73 13.64 4.12 28.92 4.12 28.92h20.9s0-.15-.04-.34l.82.3s0-.11 0-.15c-2.29-63.08-41.99-116.61-97.51-139.05-.07-.04-.22-.07-.22-.07s2.1 1.09 4.61 2.81c.98.68 2.14 1.47 3.34 2.33z"/><path d="m1014.22 275.43c-.11-12.36-9.66-22.4-21.46-22.59v-3.67h5.92v-.64-2.25c0-.11-.07-.19-.19-.19h-.9c-.11 0-.19.07-.19.19v2.14h-4.68v-8.42h.11c.15 0 .26-.11.26-.26v-2.32c0-.15-.11-.26-.26-.26h-1.05c-.15 0-.26.11-.26.26v2.32c0 .15.11.26.26.26h.15v8.43h-4.72v-2.14c0-.11-.07-.19-.19-.19h-.9c-.11 0-.19.07-.19.19v2.17.64h5.99v3.67c-11.87.22-21.43 10.26-21.46 22.7v.11h43.72c.04.04.04-.11.04-.15z"/><path d="m953.87 351.18c6.29-9.85 13.37-16.67 13.37-16.67l.19-.22s-.07.04-.07.07c-24.72 10.75-45.96 31.84-60.8 59.41-.71 1.2-1.42 2.36-2.14 3.6-2.73 4.94-5.06 9.96-7.08 14.98-7.3 17.94-10.45 35.81-11.8 49.15-.3 2.32-.52 4.64-.75 7 0 .11-.04.37-.04.37h.19v.04l34.58.11h3.18l-.07-.41c.04-1.12.11-4.5.19-6.56-.11 2.88-.19-8.58 1.31-23.15 3.63-35.09 14.27-63.49 29.74-87.72z"/><path d="m1061.45 505.21c.94 0 1.69-.75 1.69-1.69v-12.77c0-.94-.75-1.69-1.69-1.69h-12.77c-.94 0-1.69.75-1.69 1.69v12.77c0 .94.75 1.69 1.69 1.69z"/><path d="m1113.15 505.21c.94 0 1.69-.75 1.69-1.69v-12.77c0-.94-.75-1.69-1.69-1.69h-12.77c-.94 0-1.69.75-1.69 1.69v12.77c0 .94.75 1.69 1.69 1.69z"/><path d="m1143.3 479.55h-.71-.04-27.72v-4.83c0-.79-.64-1.42-1.42-1.42h-13.34c-.79 0-1.42.64-1.42 1.42v4.83h-35.47v-4.83c0-.79-.64-1.42-1.42-1.42h-13.34c-.79 0-1.42.64-1.42 1.42v4.83h-46.52v-4.83c0-.79-.64-1.42-1.42-1.42h-13.34c-.79 0-1.42.64-1.42 1.42v4.83h-46.5v-4.83c0-.79-.64-1.42-1.42-1.42h-13.34c-.79 0-1.42.64-1.42 1.42v4.83h-35.51v-4.83c0-.79-.64-1.42-1.42-1.42h-13.34c-.79 0-1.42.64-1.42 1.42v4.83h-27.57-.04-.75c-.52 0-.94.41-.94.94v2.55c0 .52.41.94.94.94h301.77c.52 0 .94-.41.94-.94v-.79-1.01-.75c0-.49-.45-.94-.98-.94z"/><path d="m998.78 505.17c.94 0 1.69-.75 1.69-1.69v-12.77c0-.94-.75-1.69-1.69-1.69h-12.77c-.94 0-1.69.75-1.69 1.69v12.77c0 .94.75 1.69 1.69 1.69z"/><path d="m936.11 505.17c.94 0 1.69-.75 1.69-1.69v-12.77c0-.94-.75-1.69-1.69-1.69h-12.77c-.94 0-1.69.75-1.69 1.69v12.77c0 .94.75 1.69 1.69 1.69z"/><path d="m985.15 468.87v-131.97s-.41.34-.6.52c-28.43 24.46-47.8 73.31-47.8 129.57v2.06z"/><path d="m849.77 468.87h8.05l7.19.04v-.04h5.69s1.39-15.28 4.12-28.92c2.32-11.65 6.03-21.8 6.44-23.07 2.32-6.59 4.94-14.01 8.99-21.95 7.3-14.35 14.72-27.79 28.17-41.95 4.08-4.31 8.65-8.92 14.05-13.37 2.32-1.91 4.46-3.56 6.29-4.91 1.2-.82 2.36-1.65 3.41-2.32 2.55-1.72 4.61-2.81 4.61-2.81s-.15.07-.22.07c-55.55 22.44-95.22 76.01-97.51 139.09v.15z"/><path d="m1142.55 508.99h-300.23c-.94 0-1.69.75-1.69 1.69v7.12c0 .94.75 1.69 1.69 1.69h300.27c.94 0 1.69-.75 1.69-1.69v-7.12c-.04-.94-.79-1.69-1.73-1.69z"/><path d="m884.42 505.17c.94 0 1.69-.75 1.69-1.69v-12.77c0-.94-.75-1.69-1.69-1.69h-12.77c-.94 0-1.69.75-1.69 1.69v12.77c0 .94.75 1.69 1.69 1.69z"/></g><path d="m795.08 635.31c-.19 0-.37-.22-.6-.71-.19-.49-.26-.9-.26-1.27s.11-.6.3-.71c3.18-.45 5.51-1.05 7-1.87 1.5-.82 2.25-2.29 2.25-4.35v-39.78c0-1.01-.19-1.72-.6-2.14-.41-.37-1.05-.6-2.06-.6h-2.21c-7.45 0-11.99 1.76-13.6 5.28-.45.9-1.2 1.27-2.25 1.05-.75-.15-1.05-.52-.9-1.09.9-3.71 1.54-6.93 1.87-9.7.04-.71.22-1.16.6-1.27.37-.11.97-.11 1.84 0 3.41.34 10.9.56 22.4.56 12.81 0 20.98-.19 24.61-.56.9-.11 1.57-.11 2.02 0s.56.56.3 1.27c-1.24 3.86-2.06 7.08-2.47 9.7-.11.71-.56 1.05-1.35 1.05s-1.27-.34-1.42-1.01c-.82-3.52-4.57-5.28-11.28-5.32h-2.51c-2.1 0-3.15.9-3.15 2.66v39.78c0 2.06.75 3.48 2.25 4.31 1.5.82 3.86 1.46 7.04 1.87.19.11.3.34.3.75 0 .37-.07.82-.26 1.31s-.41.71-.64.71h-27.42z" fill="#fff"/><path d="m904.16 633.43c.3 0 .49.34.45 1.05s-.19 1.12-.49 1.24c-1.84.49-3.71.75-5.58.86s-3.86-.3-5.96-1.31c-2.1-.97-3.9-2.43-5.39-4.38l-12.4-15.96c-1.61-2.1-3.41-3.45-5.43-4.12s-4.61-1.01-7.83-1.05v15.62c0 2.55.75 4.35 2.21 5.28 1.46.94 3.75 1.61 6.82 1.99.15 0 .22.22.22.71s-.07.94-.19 1.42c-.11.49-.26.71-.49.71h-24.46c-.19 0-.41-.22-.56-.71s-.22-.94-.22-1.42c0-.49.11-.71.3-.71 2.21-.3 3.86-.97 4.98-2.06 1.16-1.05 1.69-2.81 1.69-5.21v-35.96c0-2.47-.56-4.31-1.69-5.39-1.12-1.09-2.81-1.99-4.98-2.55-.3-.11-.41-.64-.26-1.54s.34-1.35.71-1.31c2.51.3 5.62.49 9.29.52 2.17 0 5.02-.07 8.5-.22 3.52-.15 5.84-.22 6.97-.22 6.26 0 11.24 1.27 14.87 3.82 3.67 2.55 5.47 6.26 5.47 11.09 0 4.38-1.42 7.79-4.31 10.3-2.88 2.51-6.22 3.86-10.04 4.05v.41c1.61 0 3.07.37 4.42 1.24 1.35.82 2.92 2.32 4.68 4.53l12.02 15.1c2.17 2.7 4.42 4.05 6.74 4.05zm-40.27-27.42c6.18 0 10.53-.71 12.96-2.14 2.43-1.42 3.67-4.08 3.67-8.02 0-4.12-1.2-7.34-3.52-9.51-2.32-2.21-5.36-3.3-9.1-3.3-2.32 0-3.93.52-4.87 1.5s-1.42 2.62-1.42 4.98v16.63h2.32z" fill="#fff"/><path d="m971.36 632.53c.52.11.75.6.67 1.46-.07.86-.34 1.31-.82 1.31h-21.31c-.52 0-.79-.45-.82-1.31-.04-.86.15-1.35.6-1.46.9-.15 1.65-.34 2.21-.6.56-.22 1.09-.67 1.61-1.27s.71-1.46.6-2.55-.52-2.47-1.24-4.16l-.86-2.02c-.34-.9-.86-1.5-1.54-1.72-.67-.22-1.69-.34-3.03-.34h-16.44c-1.35 0-2.32.11-3 .34-.67.22-1.2.82-1.57 1.72l-.79 2.02c-.71 1.65-1.12 3.03-1.16 4.12-.04 1.12.19 1.99.75 2.55s1.12.97 1.8 1.24c.67.22 1.57.45 2.73.6.52.11.75.6.67 1.46-.07.86-.37 1.31-.94 1.31h-17.42c-.49 0-.75-.45-.82-1.31s.11-1.35.64-1.46c1.84-.3 3.33-1.01 4.46-2.1 1.12-1.05 2.36-3.22 3.75-6.44l13.67-31.28c2.73-6.18 4.08-10.68 4.08-13.49 0-.26.94-.64 2.85-1.01 1.87-.41 2.92-.49 3.03-.19l19.67 45.89c1.39 3.22 2.62 5.39 3.78 6.56 1.12 1.12 2.55 1.84 4.31 2.14zm-24.61-17.11c.45 0 .79-.04 1.09-.07.3-.04.56-.15.75-.34s.22-.49.07-.86l-9.44-22.55-9.51 22.55c-.19.49-.11.79.26.97.41.19.94.26 1.61.26h15.25z" fill="#fff"/><path d="m1015.49 604.51c3.97 0 7.45 1.35 10.38 3.97 2.92 2.62 4.38 6.11 4.38 10.41 0 5.02-2.06 8.99-6.18 11.99s-9.55 4.5-16.33 4.5c-1.12 0-3.26-.07-6.41-.22s-5.81-.22-7.94-.22c-5.47 0-9.7.15-12.66.49-.34.04-.6-.37-.75-1.35-.15-.94-.07-1.46.22-1.57 1.61-.45 2.77-.75 3.41-.94.67-.19 1.5-.6 2.47-1.16s1.65-1.31 2.02-2.21c.34-.9.52-2.1.52-3.56v-35.85c0-2.32-.6-4.01-1.76-5.09-1.2-1.05-2.85-1.84-5.02-2.36-.3-.04-.41-.52-.26-1.42s.34-1.35.71-1.31c2.62.3 5.88.49 9.74.52 2.36 0 5.21-.07 8.47-.22s5.36-.22 6.26-.22c5.47 0 10 1.16 13.6 3.41 3.6 2.29 5.39 5.54 5.43 9.81.04 3.18-.9 5.88-2.85 8.05s-4.38 3.56-7.34 4.12v.52zm-8.13 26.71c3.93 0 7-.79 9.18-2.32s3.26-4.31 3.26-8.24c0-4.31-1.27-7.64-3.75-10-2.47-2.36-5.69-3.56-9.66-3.56h-8.32v17.46c0 2.32.71 4.01 2.14 5.09 1.42 1.05 3.82 1.57 7.19 1.57zm-7.94-47.12c-.82.86-1.27 2.4-1.27 4.65v14.38h8.32c6.11 0 9.18-3.03 9.22-9.14 0-3.67-1.12-6.44-3.26-8.35-2.17-1.87-5.02-2.85-8.5-2.85-2.19.04-3.69.45-4.51 1.31z" fill="#fff"/><path d="m1100.37 632.53c.52.11.75.6.67 1.46-.07.86-.34 1.31-.82 1.31h-21.31c-.52 0-.79-.45-.82-1.31-.04-.86.15-1.35.6-1.46.9-.15 1.65-.34 2.21-.6.56-.22 1.12-.67 1.61-1.27.52-.6.71-1.46.6-2.55s-.52-2.47-1.24-4.16l-.86-2.02c-.34-.9-.86-1.5-1.54-1.72-.67-.22-1.69-.34-3.03-.34h-16.44c-1.35 0-2.32.11-3 .34-.67.22-1.16.82-1.57 1.72l-.79 2.02c-.71 1.65-1.12 3.03-1.16 4.12-.04 1.12.19 1.99.75 2.55.56.6 1.12.97 1.8 1.24.67.22 1.57.45 2.73.6.52.11.75.6.67 1.46s-.37 1.31-.94 1.31h-17.42c-.49 0-.75-.45-.82-1.31s.11-1.35.64-1.46c1.84-.3 3.33-1.01 4.46-2.1 1.12-1.05 2.36-3.22 3.75-6.44l13.67-31.28c2.7-6.18 4.08-10.68 4.08-13.49 0-.26.94-.64 2.85-1.01 1.87-.41 2.92-.49 3.03-.19l19.67 45.89c1.39 3.22 2.62 5.39 3.78 6.56 1.12 1.12 2.55 1.84 4.31 2.14zm-24.61-17.11c.45 0 .79-.04 1.12-.07.3-.04.56-.15.75-.34s.22-.49.07-.86l-9.44-22.55-9.51 22.55c-.19.49-.11.79.26.97.37.19.94.26 1.61.26h15.25z" fill="#fff"/><path d="m1110.3 652.54c-.34 0-.67-.22-.97-.71s-.49-.9-.52-1.31c-.04-.37.04-.64.22-.75 2.06-.19 3.82-1.5 5.28-3.86s2.21-5.77 2.21-10.15v-47.16c0-2.55-.6-4.35-1.76-5.32-1.2-.97-2.85-1.61-4.91-1.87-.19 0-.3-.22-.3-.67s.07-.86.22-1.27.34-.6.56-.6h22.14c.19 0 .41.19.56.6.15.37.22.82.22 1.27s-.11.64-.3.64c-2.1.26-3.75.9-4.91 1.87-1.2.97-1.76 2.73-1.76 5.32v47.16c0 3.86-1.87 7.64-5.66 11.35-3.78 3.71-7.15 5.54-10.19 5.54z" fill="#fff"/><path d="m1173.34 636.58c-8.39 0-15.32-2.77-20.83-8.32-5.51-5.54-8.28-12.51-8.28-20.9 0-8.32 2.73-15.36 8.17-21.16 5.43-5.81 12.47-8.65 21.16-8.65 8.47 0 15.43 2.73 20.9 8.28 5.47 5.51 8.24 12.44 8.24 20.83s-2.73 15.47-8.17 21.28c-5.43 5.81-12.47 8.65-21.16 8.65h-.03zm3-5.39c1.95 0 3.82-.34 5.62-1.01s3.6-1.72 5.32-3.18 3.11-3.56 4.12-6.26c1.01-2.73 1.54-5.88 1.54-9.44 0-7.94-2.29-14.65-6.86-20.04s-9.85-8.13-15.85-8.13c-1.95 0-3.78.3-5.58.97s-3.56 1.72-5.24 3.18c-1.69 1.46-3.03 3.52-4.05 6.18-1.01 2.7-1.54 5.84-1.54 9.44 0 8.02 2.28 14.68 6.86 20.08 4.57 5.39 9.85 8.13 15.81 8.13z" fill="#fff"/><path d="m606.38 334.12-383.63 983.82h767.25z" fill="#308a40"/><path d="m482.62 952.88h247.5v693h-247.5z" fill="#308a40"/><path d="m1373.62 334.12-383.62 983.82h767.25z" fill="#308a40"/><path d="m1249.88 952.88h247.5v693h-247.5z" fill="#308a40"/></svg>