<svg enable-background="new 0 0 459 80" viewBox="0 0 459 80" xmlns="http://www.w3.org/2000/svg"><g fill="#fff"><path d="m40 0c-22.1 0-40 17.9-40 40s17.9 40 40 40 40-17.9 40-40-17.9-40-40-40zm0 76c-19.9 0-36-16.1-36-36s16.1-36 36-36 36 16.1 36 36-16.1 36-36 36z"/><path d="m46.2 21h-12.2z"/><path d="m33.7 23.4c-.1 0-.5 0-1 0s-.8 0-.9 0h-.1s0 0 0 0c0 .1 0 .2-.1.4h.1c.1-.1.2-.2.5-.2h.1.1v.1 1.6c0 .1 0 .1-.1.2-.1 0-.2.1-.3.1h1.1c-.1 0-.2 0-.3-.1-.1 0-.1-.1-.1-.2v-1.6c0-.1 0-.1.1-.1h.1c.3 0 .4.1.5.2h.1c.2-.1.2-.2.2-.4.1 0 .1 0 0 0z"/><path d="m36.3 25.4-.5-.6c-.1-.1-.1-.2-.2-.2s-.1 0-.2 0c.2 0 .3-.1.4-.2s.2-.2.2-.4-.1-.3-.2-.4c-.2-.1-.4-.2-.6-.2 0 0-.1 0-.3 0s-.2 0-.3 0-.3 0-.4 0v.1c.1 0 .1 0 .2.1 0 0 .1.1.1.2v1.5c0 .1 0 .2-.1.2 0 0-.1.1-.2.1v.1h1s0 0 0-.1c-.1 0-.2 0-.3-.1-.1 0-.1-.1-.1-.2v-.6h.3c.1 0 .2.1.2.2l.5.6c.1.1.1.1.2.2.1 0 .2.1.2.1s.2 0 .2 0c0-.2-.1-.3-.1-.4zm-1.4-.9h-.1v-.7c0-.1 0-.2.1-.2 0 0 .1-.1.2-.1.2 0 .3 0 .4.1s.1.2.1.4 0 .3-.2.3c-.1.2-.2.2-.5.2z"/><path d="m39.1 25.5s-.1-.1-.1-.3l-.8-1.8s0 0-.1 0-.1 0-.1 0c0 .1 0 .3-.2.5l-.5 1.3c-.1.1-.1.2-.2.3 0 0-.1.1-.2.1v.1h.7s0-.1 0-.1c-.1 0-.1 0-.1 0s0 0-.1 0c0 0 0 0 0-.1s0-.1 0-.2v-.1s0-.1.1-.1h.1.7.1s0 0 .1.1v.1.2.1s0 0-.1 0c0 0 0 0-.1 0v.1h.9v-.1c0-.1-.1-.1-.1-.1zm-.8-.6h-.7s0 0-.1 0l.4-.9.4.9c0-.1 0-.1 0 0z"/><path d="m41 24.4c.1 0 .2-.1.3-.2s.1-.2.1-.3c0-.2-.1-.3-.2-.4s-.3-.1-.5-.1c0 0-.1 0-.2 0s-.2 0-.3 0c-.2 0-.3 0-.4 0v.1c.1 0 .2.1.2.1s.1.1.1.2v1.4.1s0 .1-.1.1h-.1s-.1 0-.1 0v.1h.5.3.3c.3 0 .5-.1.7-.2s.2-.3.2-.5-.1-.3-.2-.4c-.3.1-.4 0-.6 0zm-.7-.6c0-.1 0-.2 0-.2s.1 0 .2-.1c.1 0 .2 0 .3.1.2.1.2.2.2.4s-.1.4-.4.4h-.3zm.8 1.6c-.1.1-.2.1-.4.1-.1 0-.2 0-.3 0-.1-.1-.1-.1-.1-.2v-.7h.3c.2 0 .3 0 .4.1s.2.2.2.4c0 .1 0 .2-.1.3z"/><path d="m44.3 25.5s-.1-.1-.2-.3l-.8-1.8s0 0-.1 0-.1 0-.1 0c0 .1 0 .3-.2.5l-.5 1.3c0 .1-.1.2-.1.3-.1 0-.1.1-.2.1v.1h.7v-.1h-.1s0 0-.1 0 0 0 0-.1 0-.1 0-.2v-.1s0-.1.1-.1h.1.7.1s0 0 .1.1v.1c0 .1.1.1.1.2v.1s0 0-.1 0c0 0 0 0-.1 0v.1h.9v-.1c-.1-.1-.2-.1-.2-.1zm-.8-.6h-.7s0 0-.1 0l.4-.9.4.9c.1-.1.1-.1 0 0z"/><path d="m45.8 23.4h-.9v.1c.1 0 .1 0 .2.1.1 0 .1.1.1.2v1.9c0 .2 0 .3-.1.4s-.1.2-.2.2v.1c.1 0 .3-.1.4-.2.1-.2.2-.3.2-.5v-1.9c0-.1 0-.2.1-.2s.1-.1.2-.2c0 .1 0 .1 0 0z"/><path d="m48.3 23.7c-.2-.2-.5-.3-.8-.3-.4 0-.6.1-.9.3-.2.2-.3.5-.3.9 0 .3.1.6.3.8s.5.3.8.3c.4 0 .6-.1.9-.4.2-.2.3-.5.3-.9s-.1-.5-.3-.7zm-.2 1.4c0 .1-.1.2-.2.2-.1.1-.1.1-.2.1s-.2 0-.2 0c-.2 0-.5-.1-.6-.3-.2-.2-.3-.5-.3-.8 0-.1 0-.3.1-.4 0-.1.1-.2.2-.2.1-.1.1-.1.2-.1h.2c.2 0 .5.1.6.3.2.2.3.5.3.8 0 .1 0 .3-.1.4z"/><path d="m55.5 13.5-1.1 2.8c-1.7-5.9-6.9-10.2-13.1-10.8h-2.6c-6.2.5-11.4 4.9-13.1 10.7l-1.1-2.8-15.5 39.8h10.5v13.2h10v-13.2h10.5l-7.8-19.9c2.3 1.4 4.9 2.2 7.8 2.2s5.5-.8 7.8-2.2l-7.8 19.9h10.5v13.2h10v-13.2h10.5zm-13.5-.2c2.2.9 3.8 3.1 3.9 5.6h-.9s-.1-.6-.2-1.2c-.1-.5-.2-.9-.3-.9-.1-.3-.2-.6-.4-.9-.3-.6-.6-1.1-1.1-1.7-.2-.2-.3-.4-.6-.5-.1-.1-.2-.1-.3-.2-.1 0-.1-.1-.1-.1zm1.6 2.6s.1.1.1.1c.1.2.2.4.3.6.3.7.4 1.4.5 2v.3h-1.5s0-.2 0-.3 0-.5-.1-.9c-.1-1.4-.6-2.6-1.2-3.5-.2-.3-.5-.6-.5-.7.9.5 1.8 1.3 2.4 2.4zm-1.2 3s0 .1 0 0l-2 .1v-5.3c1.2.9 1.9 2.9 2 5.2zm-2.3-8.7v-.1h-.2v-.1h.2v-.3-.1.1.3h.2v.1h-.2v.1c.5 0 .9.4.9.9h-1.8c0-.5.4-.9.9-.9zm-1.2 1.1h2.3v.1h-2.2c-.1 0-.1 0-.1-.1zm1.9.3v1.2s0 .1-.1.1h-.2s-.1 0-.1-.1v-1.2s0-.1.1-.1l.3.1c0-.1 0-.1 0 0zm-.5 0v1.2s0 .1-.1.1h-.2s-.1 0-.1-.1v-1.2s0-.1.1-.1l.3.1c-.1-.1 0-.1 0 0zm-.6 0v1.2s0 .1-.1.1h-.2s-.1 0-.1-.1v-1.2s0-.1.1-.1l.3.1c0-.1 0-.1 0 0zm-.8 1.4h2.3v.1h-2.2c-.1 0-.1 0-.1-.1zm.9.6v5.3h-2s0 0 0-.1c0-2.2.8-4.2 2-5.2zm-.7-.1c-.1.1-.3.3-.5.7-.6 1-1 2.1-1.2 3.5-.1.5-.1.8-.1.9v.3h-1.5c0-.1 0-.2 0-.3.1-.5.2-1.3.5-2 .1-.2.2-.4.3-.6 0 0 .1-.1.1-.2.5-1 1.4-1.8 2.4-2.3zm-4.8 5.4c.1-2.5 1.7-4.7 3.9-5.6 0 0-.1 0-.2.1 0 0-.1.1-.1.1-.1.1-.2.1-.2.2-.2.2-.4.4-.6.5-.5.6-.8 1.1-1.1 1.7-.2.3-.3.6-.4.9 0 0-.2.5-.3.9-.1.5-.2 1.2-.2 1.2zm-.3.5h1.2v-.2s0-.1.1-.1h.5s.1 0 .1.1v.2h1.4v-.2s0-.1.1-.1h.5s.1 0 .1.1v.2h1.9v-.2s0-.1.1-.1h.5s.1 0 .1.1v.2h1.9v-.2s0-.1.1-.1h.5s.1 0 .1.1v.2h1.4v-.2s0-.1.1-.1h.3s.1 0 .1.1v.2h1.2v.1h-12.3zm11 .4v.5s0 .1-.1.1h-.5s-.1 0-.1-.1v-.5s0-.1.1-.1zm-2 0v.5s0 .1-.1.1h-.5s-.1 0-.1-.1v-.5s0-.1.1-.1l.6.1c-.1 0 0 0 0 0zm-2.6 0v.5s0 .1-.1.1h-.5s-.1 0-.1-.1v-.5s0-.1.1-.1zm-2.5 0v.5s0 .1-.1.1h-.5s-.1 0-.1-.1v-.5s0-.1.1-.1zm-2.1 0v.5s0 .1-.1.1h-.5s-.1 0-.1-.1v-.5s0-.1.1-.1zm11.8 12.7c-2.2 1.3-4.8 2.1-7.6 2.1s-5.4-.8-7.6-2.1c-.2-.1-.4-.3-.7-.5l-4.3-11h6.6s0 0 0-.1v-.3s0-.1.1-.1h12.1s.1 0 .1.1v.3.1h6.4l-4.3 11c-.3.1-.6.3-.8.5z"/><path d="m126.1 68.1c-4.3 0-8.2-.7-11.9-2.2s-6.8-3.5-9.6-6.1-4.8-5.7-6.4-9.2c-1.5-3.5-2.3-7.3-2.3-11.3 0-4.1.8-7.9 2.3-11.4s3.7-6.6 6.4-9.2 5.9-4.6 9.6-6.1 7.6-2.2 11.8-2.2c3.1 0 6.1.4 9.1 1.4 3 .9 5.8 2.2 8.3 3.8s4.6 3.6 6.4 5.8l-9.3 9.1c-2-2.5-4.2-4.4-6.6-5.6s-5.1-1.8-7.9-1.8c-2.2 0-4.3.4-6.3 1.2s-3.6 2-5.1 3.4-2.6 3.1-3.4 5.1-1.2 4.1-1.2 6.5c0 2.3.4 4.4 1.2 6.4s2 3.7 3.4 5.1c1.5 1.5 3.2 2.6 5.2 3.4s4.2 1.2 6.5 1.2c2.7 0 5.2-.6 7.6-1.8s4.4-2.9 6.3-5.2l9 8.9c-1.7 2.2-3.8 4.1-6.3 5.7s-5.2 2.9-8.2 3.8c-2.6.9-5.6 1.3-8.6 1.3z"/><path d="m182 68.2c-4.2 0-8.1-.7-11.8-2.2-3.6-1.5-6.8-3.5-9.5-6.2s-4.8-5.7-6.4-9.2-2.3-7.3-2.3-11.3.8-7.8 2.3-11.3 3.6-6.6 6.4-9.2 5.9-4.7 9.5-6.2 7.6-2.2 11.8-2.2 8.1.7 11.8 2.2c3.6 1.5 6.8 3.5 9.5 6.2s4.8 5.7 6.4 9.2 2.3 7.3 2.3 11.3-.8 7.8-2.3 11.3-3.6 6.6-6.4 9.2-5.9 4.7-9.5 6.2-7.6 2.2-11.8 2.2zm0-12.6c2.2 0 4.3-.4 6.2-1.2s3.6-2 5-3.4 2.5-3.2 3.3-5.2 1.2-4.2 1.2-6.4c0-2.3-.4-4.5-1.2-6.5s-1.9-3.7-3.3-5.1-3.1-2.6-5-3.4-4-1.2-6.2-1.2-4.3.4-6.2 1.2-3.6 2-5 3.4-2.5 3.1-3.3 5.1-1.2 4.1-1.2 6.4.4 4.5 1.2 6.5 1.9 3.7 3.3 5.2 3.1 2.6 5 3.4 4 1.2 6.2 1.2z"/><path d="m247.2 68.2c-4.2 0-8.1-.7-11.8-2.2-3.6-1.5-6.8-3.5-9.5-6.2s-4.8-5.7-6.4-9.2-2.3-7.3-2.3-11.3.8-7.8 2.3-11.3 3.6-6.6 6.4-9.2 5.9-4.7 9.5-6.2 7.6-2.2 11.8-2.2 8.1.7 11.8 2.2 6.8 3.5 9.5 6.2 4.8 5.7 6.4 9.2 2.3 7.3 2.3 11.3-.8 7.8-2.3 11.3-3.6 6.6-6.4 9.2c-2.7 2.6-5.9 4.7-9.5 6.2-3.7 1.5-7.6 2.2-11.8 2.2zm0-12.6c2.2 0 4.3-.4 6.2-1.2s3.6-2 5-3.4 2.5-3.2 3.3-5.2 1.2-4.2 1.2-6.4c0-2.3-.4-4.5-1.2-6.5s-1.9-3.7-3.3-5.1-3.1-2.6-5-3.4-4-1.2-6.2-1.2-4.3.4-6.2 1.2-3.6 2-5 3.4-2.5 3.1-3.3 5.1-1.2 4.1-1.2 6.4.4 4.5 1.2 6.5 1.9 3.7 3.3 5.2 3.1 2.6 5 3.4c1.8.8 3.9 1.2 6.2 1.2z"/><path d="m284.4 67.3v-56h29.5c3.7 0 7 .8 9.8 2.4 2.9 1.6 5.1 3.7 6.8 6.4 1.6 2.7 2.5 5.8 2.5 9.4 0 3.4-.8 6.4-2.5 9.1-1.6 2.7-3.9 4.8-6.8 6.4s-6.1 2.3-9.8 2.3h-15.8v20.1h-13.7zm13.7-31.4h14.2c2 0 3.6-.6 4.9-1.8s1.8-2.7 1.8-4.6-.6-3.5-1.8-4.7-2.9-1.8-4.9-1.8h-14.2z"/><path d="m340 67.3v-56h17.4l13.8 26.4 13.8-26.4h17.4v56h-13v-38.1l-18.4 34.1-18.4-34.3v38.3z"/><path d="m426.8 67.3v-43.8h-18.3v-12.2h50.4v12.2h-18.3v43.8z"/></g></svg>