<svg enable-background="new 0 0 459 80" viewBox="0 0 459 80" xmlns="http://www.w3.org/2000/svg" xmlns:xlink="http://www.w3.org/1999/xlink"><linearGradient id="a" gradientUnits="userSpaceOnUse" x1="25.051" x2="55" y1="13.2523" y2="13.2523"><stop offset="0" stop-color="#fff"/><stop offset="1" stop-color="#a7a9ac"/></linearGradient><circle cx="40" cy="40" fill="#308a40" r="40"/><circle cx="40" cy="40" fill="#ffcb04" r="36"/><path d="m55 20.47c0 .17 0 .35-.01.52h-29.94v-2.03c.72-7.15 6.45-12.82 13.63-13.44h2.61c7.68.66 13.71 7.1 13.71 14.95z" fill="url(#a)"/><path d="m54.99 20.99c-.27 8.05-6.89 14.5-15 14.5-7.78 0-14.18-5.92-14.94-13.5v-1z" fill="#ed232a"/><g fill="#003876"><path d="m38.95 13.14h2.28c.02 0 .04-.02.04-.04v-.09c0-.02-.02-.04-.04-.04h-2.28c-.02 0-.04.02-.04.04v.09c0 .02.02.04.04.04z"/><path d="m40.56 11.51c-.04 0-.07.03-.07.07v1.19c0 .04.03.07.07.07h.22c.04 0 .07-.03.07-.07v-1.19c0-.04-.03-.07-.07-.07z"/><path d="m39.98 11.51c-.04 0-.07.03-.07.07v1.19c0 .04.03.07.07.07h.22c.04 0 .07-.03.07-.07v-1.19c0-.04-.03-.07-.07-.07z"/><path d="m39.4 11.51c-.04 0-.07.03-.07.07v1.19c0 .04.03.07.07.07h.22c.04 0 .07-.03.07-.07v-1.19c0-.04-.03-.07-.07-.07z"/><path d="m40.42 13.63c-.01-.01-.02-.02-.02-.02v5.33l1.96.01s0-.05 0-.08c-.01-2.28-.79-4.25-1.94-5.24z"/><path d="m44.45 18.92c-.01-.09-.02-.19-.03-.28-.05-.54-.18-1.26-.48-1.99-.08-.2-.18-.41-.29-.61-.03-.05-.06-.1-.09-.15-.6-1.11-1.46-1.96-2.46-2.4l.01.01s.29.28.54.67c.63.98 1.05 2.12 1.2 3.54.06.59.06 1.05.05.94 0 .08.01.22.01.26v.02h.13 1.4.01c0 .01 0 0 0-.01z"/><path d="m38.95 11.41h2.28c.02 0 .04-.02.04-.04v-.09c0-.02-.02-.04-.04-.04h-2.28c-.02 0-.04.02-.04.04v.09c0 .03.02.04.04.04z"/><path d="m42.27 13.52c.07.05.16.12.26.2.22.18.4.37.57.54.54.57.84 1.12 1.14 1.7.16.32.27.62.36.89.02.05.17.46.26.93.11.55.17 1.17.17 1.17h.84v-.01l.03.01s0 0 0-.01c-.09-2.55-1.7-4.71-3.94-5.62h-.01s.08.04.19.11c.03.02.08.06.13.09z"/><path d="m40.98 11.13c0-.5-.39-.91-.87-.91v-.15h.24v-.03-.09s0-.01-.01-.01h-.04s-.01 0-.01.01v.09h-.19v-.34c.01 0 .01 0 .01-.01v-.1c0-.01 0-.01-.01-.01h-.04c-.01 0-.01 0-.01.01v.09c0 .01 0 .01.01.01h.01v.34h-.19v-.08s0-.01-.01-.01h-.04s-.01 0-.01.01v.09.03h.24v.15c-.48.01-.87.41-.87.92z"/><path d="m38.54 14.19c.25-.4.54-.67.54-.67l.01-.01c-1 .43-1.86 1.29-2.46 2.4-.03.05-.06.1-.09.15-.11.2-.2.4-.29.61-.3.72-.42 1.45-.48 1.99-.01.09-.02.19-.03.28v.02h.01 1.4.13v-.02c0-.05 0-.18.01-.26 0 .12-.01-.35.05-.94.15-1.42.58-2.57 1.2-3.55z"/><path d="m42.89 20.41c.04 0 .07-.03.07-.07v-.52c0-.04-.03-.07-.07-.07h-.52c-.04 0-.07.03-.07.07v.52c0 .04.03.07.07.07z"/><path d="m44.98 20.41c.04 0 .07-.03.07-.07v-.52c0-.04-.03-.07-.07-.07h-.52c-.04 0-.07.03-.07.07v.52c0 .04.03.07.07.07z"/><path d="m46.19 19.38h-.03-1.12v-.2c0-.03-.03-.06-.06-.06h-.54c-.03 0-.06.03-.06.06v.2h-1.43v-.2c0-.03-.03-.06-.06-.06h-.54c-.03 0-.06.03-.06.06v.2h-1.88v-.2c0-.03-.03-.06-.06-.06h-.54c-.03 0-.06.03-.06.06v.2h-1.88v-.2c0-.03-.03-.06-.06-.06h-.54c-.03 0-.06.03-.06.06v.2h-1.41v-.2c0-.03-.03-.06-.06-.06h-.54c-.03 0-.06.03-.06.06v.2h-1.11-.03c-.02 0-.04.02-.04.04v.1c0 .02.02.04.04.04h12.2c.02 0 .04-.02.04-.04v-.03-.04-.03c-.01-.03-.02-.04-.05-.04z"/><path d="m40.35 20.41c.04 0 .07-.03.07-.07v-.52c0-.04-.03-.07-.07-.07h-.52c-.04 0-.07.03-.07.07v.52c0 .04.03.07.07.07z"/><path d="m37.82 20.41c.04 0 .07-.03.07-.07v-.52c0-.04-.03-.07-.07-.07h-.52c-.04 0-.07.03-.07.07v.52c0 .04.03.07.07.07z"/><path d="m39.8 18.94v-5.33s-.02.01-.02.02c-1.15.99-1.93 2.96-1.93 5.24v.08z"/><path d="m34.33 18.94h.33.29.23s.06-.62.17-1.17c.09-.47.24-.88.26-.93.09-.27.2-.57.36-.89.3-.58.59-1.12 1.14-1.7.16-.17.35-.36.57-.54.09-.08.18-.14.25-.2.05-.03.1-.07.14-.09.1-.07.19-.11.19-.11s-.01 0-.01 0c-2.24.91-3.85 3.07-3.94 5.62v.01z"/><path d="m46.16 20.57h-12.13c-.04 0-.07.03-.07.07v.29c0 .04.03.07.07.07h12.13c.04 0 .07-.03.07-.07v-.29c0-.04-.03-.07-.07-.07z"/><path d="m35.73 20.41c.04 0 .07-.03.07-.07v-.52c0-.04-.03-.07-.07-.07h-.52c-.04 0-.07.03-.07.07v.52c0 .04.03.07.07.07z"/></g><path d="m32.12 25.67c-.01 0-.02-.01-.02-.03-.01-.02-.01-.04-.01-.05s0-.02.01-.03c.13-.02.22-.04.28-.08s.09-.09.09-.18v-1.6c0-.04-.01-.07-.02-.09-.02-.02-.04-.02-.08-.02h-.09c-.3 0-.48.07-.55.21-.02.04-.05.05-.09.04-.03-.01-.04-.02-.04-.04.04-.15.06-.28.08-.39 0-.03.01-.05.02-.05s.04 0 .07 0c.14.01.44.02.91.02.52 0 .85-.01.99-.02h.08c.02 0 .02.02.01.05-.05.16-.08.29-.1.39 0 .03-.02.04-.05.04s-.05-.01-.06-.04c-.03-.14-.18-.21-.46-.21h-.09c-.08 0-.13.04-.13.11v1.61c0 .08.03.14.09.17s.16.06.28.08c.01 0 .01.01.01.03s0 .03-.01.05-.02.03-.03.03z" fill="#fff"/><path d="m36.53 25.59c.01 0 .02.01.02.04s-.01.05-.02.05c-.07.02-.15.03-.23.03s-.16-.01-.24-.05-.16-.1-.22-.18l-.5-.64c-.07-.08-.14-.14-.22-.17s-.19-.04-.32-.04v.63c0 .1.03.18.09.21s.15.07.28.08c.01 0 .01.01.01.03s0 .04-.01.06c0 .02-.01.03-.02.03h-.99c-.01 0-.02-.01-.02-.03-.01-.02-.01-.04-.01-.06s0-.03.01-.03c.09-.01.16-.04.2-.08.05-.04.07-.11.07-.21v-1.45c0-.1-.02-.17-.07-.22s-.11-.08-.2-.1c-.01 0-.02-.03-.01-.06.01-.04.01-.05.03-.05.1.01.23.02.38.02.09 0 .2 0 .34-.01s.24-.01.28-.01c.25 0 .45.05.6.15s.22.25.22.45c0 .18-.06.31-.17.42-.12.1-.25.16-.41.16v.02c.07 0 .12.02.18.05.05.03.12.09.19.18l.49.61c.09.11.18.17.27.17zm-1.63-1.1c.25 0 .43-.03.52-.09.1-.06.15-.16.15-.32 0-.17-.05-.3-.14-.38-.09-.09-.22-.13-.37-.13-.09 0-.16.02-.2.06s-.06.11-.06.2v.67z" fill="#fff"/><path d="m39.25 25.56c.02 0 .03.02.03.06 0 .03-.01.05-.03.05h-.86c-.02 0-.03-.02-.03-.05s.01-.05.02-.06c.04-.01.07-.01.09-.02s.04-.03.07-.05.03-.06.02-.1-.02-.1-.05-.17l-.03-.08c-.01-.04-.03-.06-.06-.07s-.07-.01-.12-.01h-.66c-.05 0-.09 0-.12.01s-.05.03-.06.07l-.03.08c-.03.07-.05.12-.05.17s.01.08.03.1.05.04.07.05c.03.01.06.02.11.02.02 0 .03.02.03.06s-.02.05-.04.05h-.7c-.02 0-.03-.02-.03-.05s0-.05.03-.06c.07-.01.13-.04.18-.08s.1-.13.15-.26l.55-1.26c.11-.25.16-.43.16-.54 0-.01.04-.03.12-.04.08-.02.12-.02.12-.01l.79 1.85c.06.13.11.22.15.26.02.04.08.06.15.08zm-1-.69h.04c.01 0 .02-.01.03-.01.01-.01.01-.02 0-.03l-.38-.91-.38.91c-.01.02 0 .03.01.04.02.01.04.01.07.01z" fill="#fff"/><path d="m41.03 24.42c.16 0 .3.05.42.16s.18.25.18.42c0 .2-.08.36-.25.48s-.39.18-.66.18c-.05 0-.13 0-.26-.01s-.23-.01-.32-.01c-.22 0-.39.01-.51.02-.01 0-.02-.02-.03-.05-.01-.04 0-.06.01-.06.07-.02.11-.03.14-.04s.06-.02.1-.05c.04-.02.07-.05.08-.09s.02-.08.02-.14v-1.45c0-.09-.02-.16-.07-.21-.05-.04-.12-.07-.2-.1-.01 0-.02-.02-.01-.06s.01-.05.03-.05c.11.01.24.02.39.02.1 0 .21 0 .34-.01s.22-.01.25-.01c.22 0 .4.05.55.14s.22.22.22.4c0 .13-.04.24-.12.33s-.18.14-.3.17zm-.33 1.08c.16 0 .28-.03.37-.09s.13-.17.13-.33c0-.17-.05-.31-.15-.4-.1-.1-.23-.14-.39-.14h-.34v.71c0 .09.03.16.09.21.06.02.16.04.29.04zm-.32-1.9c-.03.03-.05.1-.05.19v.58h.34c.25 0 .37-.12.37-.37 0-.15-.05-.26-.13-.34-.09-.08-.2-.12-.34-.12-.1.01-.16.03-.19.06z" fill="#fff"/><path d="m44.46 25.56c.02 0 .03.02.03.06 0 .03-.01.05-.03.05h-.86c-.02 0-.03-.02-.03-.05s.01-.05.02-.06c.04-.01.07-.01.09-.02s.05-.03.07-.05.03-.06.02-.1c0-.04-.02-.1-.05-.17l-.03-.08c-.01-.04-.03-.06-.06-.07s-.07-.01-.12-.01h-.66c-.05 0-.09 0-.12.01s-.05.03-.06.07l-.03.08c-.03.07-.05.12-.05.17s.01.08.03.1.05.04.07.05c.03.01.06.02.11.02.02 0 .03.02.03.06 0 .03-.02.05-.04.05h-.7c-.02 0-.03-.02-.03-.05s0-.05.03-.06c.07-.01.13-.04.18-.08s.1-.13.15-.26l.55-1.26c.11-.25.16-.43.16-.54 0-.01.04-.03.12-.04.08-.02.12-.02.12-.01l.79 1.85c.06.13.11.22.15.26.03.04.08.06.15.08zm-.99-.69h.05c.01 0 .02-.01.03-.01.01-.01.01-.02 0-.03l-.38-.91-.38.91c-.01.02 0 .03.01.04.02.01.04.01.07.01z" fill="#fff"/><path d="m44.86 26.37c-.01 0-.03-.01-.04-.03s-.02-.04-.02-.05c0-.02 0-.03.01-.03.08-.01.15-.06.21-.16s.09-.23.09-.41v-1.91c0-.1-.02-.18-.07-.21-.05-.04-.12-.07-.2-.08-.01 0-.01-.01-.01-.03s0-.03.01-.05.01-.02.02-.02h.89c.01 0 .02.01.02.02.01.02.01.03.01.05s0 .03-.01.03c-.08.01-.15.04-.2.08s-.07.11-.07.21v1.91c0 .16-.08.31-.23.46-.14.14-.28.22-.41.22z" fill="#fff"/><path d="m47.41 25.72c-.34 0-.62-.11-.84-.34-.22-.22-.33-.51-.33-.84 0-.34.11-.62.33-.86s.5-.35.86-.35c.34 0 .62.11.84.33s.33.5.33.84-.11.63-.33.86-.51.36-.86.36zm.12-.22c.08 0 .15-.01.23-.04.07-.03.15-.07.21-.13.07-.06.13-.14.17-.25s.06-.24.06-.38c0-.32-.09-.59-.28-.81-.18-.22-.4-.33-.64-.33-.08 0-.15.01-.23.04-.07.03-.14.07-.21.13s-.12.14-.16.25-.06.24-.06.38c0 .32.09.59.28.81.18.22.39.33.63.33z" fill="#fff"/><path d="m24.5 13.5-15.5 39.75h31z" fill="#308a40"/><path d="m19.5 38.5h10v28h-10z" fill="#308a40"/><path d="m55.5 13.5-15.5 39.75h31z" fill="#308a40"/><path d="m50.5 38.5h10v28h-10z" fill="#308a40"/><path d="m126.12 68.12c-4.27 0-8.23-.73-11.88-2.2s-6.84-3.51-9.56-6.12-4.84-5.67-6.36-9.16-2.28-7.27-2.28-11.32c0-4.11.76-7.91 2.28-11.4s3.65-6.55 6.4-9.16 5.95-4.65 9.6-6.12 7.59-2.2 11.8-2.2c3.09 0 6.13.45 9.12 1.36s5.75 2.17 8.28 3.8 4.65 3.56 6.36 5.8l-9.28 9.12c-1.97-2.51-4.17-4.37-6.6-5.6s-5.05-1.84-7.88-1.84c-2.24 0-4.33.41-6.28 1.24s-3.64 1.96-5.08 3.4-2.56 3.15-3.36 5.12-1.2 4.13-1.2 6.48c0 2.29.41 4.41 1.24 6.36s1.97 3.65 3.44 5.12 3.2 2.6 5.2 3.4 4.17 1.2 6.52 1.2c2.72 0 5.24-.59 7.56-1.76s4.41-2.91 6.28-5.2l9.04 8.88c-1.71 2.19-3.81 4.09-6.32 5.72s-5.23 2.88-8.16 3.76-5.89 1.32-8.88 1.32z" fill="#308a40"/><path d="m182.04 68.2c-4.21 0-8.13-.73-11.76-2.2s-6.8-3.52-9.52-6.16-4.84-5.71-6.36-9.2-2.28-7.27-2.28-11.32.76-7.83 2.28-11.32 3.64-6.56 6.36-9.2 5.89-4.69 9.52-6.16 7.55-2.2 11.76-2.2 8.13.73 11.76 2.2 6.8 3.52 9.52 6.16 4.84 5.71 6.36 9.2 2.28 7.27 2.28 11.32-.76 7.83-2.28 11.32-3.64 6.56-6.36 9.2-5.89 4.69-9.52 6.16-7.55 2.2-11.76 2.2zm0-12.64c2.24 0 4.32-.41 6.24-1.24s3.59-1.96 5-3.4 2.52-3.16 3.32-5.16 1.2-4.15 1.2-6.44c0-2.35-.4-4.51-1.2-6.48s-1.91-3.68-3.32-5.12-3.08-2.57-5-3.4-4-1.24-6.24-1.24-4.32.41-6.24 1.24-3.59 1.96-5 3.4-2.52 3.15-3.32 5.12-1.2 4.11-1.2 6.4c0 2.35.4 4.52 1.2 6.52s1.91 3.72 3.32 5.16 3.08 2.57 5 3.4 4 1.24 6.24 1.24z" fill="#308a40"/><path d="m247.16 68.2c-4.21 0-8.13-.73-11.76-2.2s-6.8-3.52-9.52-6.16-4.84-5.71-6.36-9.2-2.28-7.27-2.28-11.32.76-7.83 2.28-11.32 3.64-6.56 6.36-9.2 5.89-4.69 9.52-6.16 7.55-2.2 11.76-2.2 8.13.73 11.76 2.2 6.8 3.52 9.52 6.16 4.84 5.71 6.36 9.2 2.28 7.27 2.28 11.32-.76 7.83-2.28 11.32-3.64 6.56-6.36 9.2-5.89 4.69-9.52 6.16-7.55 2.2-11.76 2.2zm0-12.64c2.24 0 4.32-.41 6.24-1.24s3.59-1.96 5-3.4 2.52-3.16 3.32-5.16 1.2-4.15 1.2-6.44c0-2.35-.4-4.51-1.2-6.48s-1.91-3.68-3.32-5.12-3.08-2.57-5-3.4-4-1.24-6.24-1.24-4.32.41-6.24 1.24-3.59 1.96-5 3.4-2.52 3.15-3.32 5.12-1.2 4.11-1.2 6.4c0 2.35.4 4.52 1.2 6.52s1.91 3.72 3.32 5.16 3.08 2.57 5 3.4 4 1.24 6.24 1.24z" fill="#308a40"/><path d="m284.36 67.32v-56h29.52c3.68 0 6.95.79 9.8 2.36s5.11 3.72 6.76 6.44 2.48 5.84 2.48 9.36c0 3.36-.83 6.39-2.48 9.08s-3.92 4.81-6.8 6.36-6.13 2.32-9.76 2.32h-15.76v20.08zm13.76-31.44h14.16c2.03 0 3.65-.59 4.88-1.76s1.84-2.69 1.84-4.56c0-1.92-.61-3.48-1.84-4.68s-2.85-1.8-4.88-1.8h-14.16z" fill="#308a40"/><path d="m339.96 67.32v-56h17.36l13.84 26.4 13.84-26.4h17.36v56h-12.96v-38.16l-18.4 34.16-18.4-34.32v38.32z" fill="#308a40"/><path d="m426.76 67.32v-43.84h-18.32v-12.16h50.4v12.16h-18.32v43.84z" fill="#308a40"/></svg>